<svg width="18" height="18" viewBox="0 0 18 18" fill="none" xmlns="http://www.w3.org/2000/svg">
<path d="M15.7675 4.60083H12.6652V2.99277C12.6652 2.729 12.4447 2.51705 12.1757 2.51705H6.41289C6.14386 2.51705 5.92338 2.729 5.92338 2.99277V4.60083H2.82165C1.79043 4.60083 0.95 5.41381 0.95 6.41588V14.602C0.95 15.6046 1.79044 16.417 2.82165 16.417H15.7681C16.7981 16.417 17.6397 15.6047 17.6397 14.602V6.41644C17.6397 5.41379 16.7981 4.60083 15.7675 4.60083ZM6.9024 3.46904H11.6861V4.60083H6.9024V3.46904ZM2.82165 5.55282H15.7681C16.2613 5.55282 16.6613 5.94144 16.6613 6.41644V10.0338H10.8221V9.71184C10.8221 8.89402 10.1355 8.2312 9.29456 8.2312C8.45365 8.2312 7.767 8.89402 7.767 9.71184V10.0338H1.92844V6.41644C1.92844 5.94138 2.32672 5.55282 2.82165 5.55282ZM9.8431 9.71184V11.3077C9.8431 11.5978 9.59816 11.8369 9.29456 11.8369C8.99097 11.8369 8.74602 11.5978 8.74602 11.3077V9.71184C8.74602 9.42171 8.99097 9.18263 9.29456 9.18263C9.59819 9.18263 9.8431 9.42118 9.8431 9.71184ZM2.82165 15.4662C2.32728 15.4662 1.92844 15.0776 1.92844 14.6026V10.9852H7.76758V11.3072C7.76758 12.125 8.4542 12.7884 9.29514 12.7884C10.1361 12.7884 10.8227 12.1255 10.8227 11.3072V10.9852H16.6618V14.6024C16.6608 15.077 16.2612 15.4662 15.7675 15.4662H2.82165Z" fill="#C4C4C4" stroke="#C4C4C4" stroke-width="0.1"/>
</svg>
