<svg width="18" height="18" viewBox="0 0 18 18" fill="none" xmlns="http://www.w3.org/2000/svg">
<path d="M8.88617 2.23587C11.3804 2.23587 13.4095 4.25976 13.4095 6.74745C13.4095 10.0743 10.1276 13.0682 8.88546 14.082C7.64261 13.0702 4.36279 10.0835 4.36279 6.74745C4.36279 4.25976 6.39196 2.23587 8.88617 2.23587ZM8.88617 1.4318C5.94278 1.4318 3.55664 3.81167 3.55664 6.74745C3.55664 11.3037 8.88617 15.101 8.88617 15.101C8.88617 15.101 14.2157 11.3037 14.2157 6.74745C14.2157 3.81167 11.8296 1.4318 8.88617 1.4318Z" fill="#C4C4C4"/>
<path fill-rule="evenodd" clip-rule="evenodd" d="M8.83281 15.1755L8.88617 15.101L8.93953 15.1755L8.88617 15.2135L8.83281 15.1755ZM13.3177 6.74745C13.3177 4.31033 11.3297 2.32744 8.88617 2.32744C6.44265 2.32744 4.45459 4.31033 4.45459 6.74745C4.45459 8.38652 5.26111 9.94771 6.23135 11.2312C7.17088 12.474 8.25641 13.4465 8.88538 13.9635C9.51409 13.4454 10.6 12.4707 11.54 11.227C12.5108 9.94255 13.3177 8.38187 13.3177 6.74745ZM8.88546 14.082C10.1276 13.0682 13.4095 10.0743 13.4095 6.74745C13.4095 4.25976 11.3804 2.23587 8.88617 2.23587C6.39196 2.23587 4.36279 4.25976 4.36279 6.74745C4.36279 10.0835 7.64261 13.0702 8.88546 14.082ZM3.46484 6.74745C3.46484 3.7611 5.89208 1.34024 8.88617 1.34024C11.8803 1.34024 14.3075 3.7611 14.3075 6.74745C14.3075 9.05944 12.9568 11.1692 11.62 12.6931C10.9502 13.4566 10.2807 14.0767 9.77865 14.506C9.52757 14.7207 9.31821 14.8877 9.17143 15.0013C9.09804 15.058 9.04028 15.1014 9.00077 15.1307C8.98101 15.1454 8.96581 15.1565 8.95549 15.164L8.94373 15.1725L8.94067 15.1747L8.93953 15.1755C8.93947 15.1755 8.93953 15.1755 8.88617 15.101C8.88617 15.101 14.2157 11.3037 14.2157 6.74745C14.2157 3.81167 11.8296 1.4318 8.88617 1.4318C5.94278 1.4318 3.55664 3.81167 3.55664 6.74745C3.55664 11.3037 8.88617 15.101 8.88617 15.101C8.83281 15.1755 8.83287 15.1755 8.83281 15.1755L8.83167 15.1747L8.82861 15.1725L8.81684 15.164C8.80653 15.1565 8.79133 15.1454 8.77157 15.1307C8.73206 15.1014 8.6743 15.058 8.60091 15.0013C8.45413 14.8877 8.24477 14.7207 7.99369 14.506C7.49164 14.0767 6.82211 13.4566 6.15232 12.6931C4.8155 11.1692 3.46484 9.05944 3.46484 6.74745Z" fill="#C4C4C4"/>
<path d="M8.88615 5.05011C9.77521 5.05011 10.4985 5.77151 10.4985 6.65825C10.4985 7.54499 9.77521 8.26639 8.88615 8.26639C7.9971 8.26639 7.27379 7.54499 7.27379 6.65825C7.27379 5.77151 7.9971 5.05011 8.88615 5.05011ZM8.88615 4.24605C7.55043 4.24605 6.46764 5.32602 6.46764 6.65825C6.46764 7.99048 7.55043 9.07046 8.88615 9.07046C10.2219 9.07046 11.3047 7.99048 11.3047 6.65825C11.3047 5.32602 10.2219 4.24605 8.88615 4.24605Z" fill="#C4C4C4"/>
<path fill-rule="evenodd" clip-rule="evenodd" d="M10.4067 6.65825C10.4067 5.82209 9.72451 5.14168 8.88615 5.14168C8.04779 5.14168 7.36559 5.82209 7.36559 6.65825C7.36559 7.49442 8.04779 8.17483 8.88615 8.17483C9.72451 8.17483 10.4067 7.49442 10.4067 6.65825ZM6.37584 6.65825C6.37584 5.27545 7.49973 4.15448 8.88615 4.15448C10.2726 4.15448 11.3965 5.27545 11.3965 6.65825C11.3965 8.04105 10.2726 9.16202 8.88615 9.16202C7.49973 9.16202 6.37584 8.04105 6.37584 6.65825ZM10.4985 6.65825C10.4985 5.77151 9.77521 5.05011 8.88615 5.05011C7.9971 5.05011 7.27379 5.77151 7.27379 6.65825C7.27379 7.54499 7.9971 8.26639 8.88615 8.26639C9.77521 8.26639 10.4985 7.54499 10.4985 6.65825ZM6.46764 6.65825C6.46764 5.32602 7.55043 4.24605 8.88615 4.24605C10.2219 4.24605 11.3047 5.32602 11.3047 6.65825C11.3047 7.99048 10.2219 9.07046 8.88615 9.07046C7.55043 9.07046 6.46764 7.99048 6.46764 6.65825Z" fill="#C4C4C4"/>
<path fill-rule="evenodd" clip-rule="evenodd" d="M13.8938 13.0704C13.2482 12.7228 12.3031 12.4339 11.1609 12.2636L11.2955 11.361C12.5002 11.5407 13.5569 11.8526 14.3264 12.2669C15.0631 12.6635 15.6881 13.2417 15.6881 14.0085C15.6881 14.5148 15.4095 14.9408 15.0305 15.2729C14.6505 15.6057 14.1269 15.8846 13.5194 16.1097C12.3007 16.5612 10.6477 16.8313 8.84404 16.8313C7.04041 16.8313 5.38734 16.5612 4.1687 16.1097C3.56113 15.8846 3.0376 15.6057 2.65762 15.2729C2.27853 14.9408 2 14.5148 2 14.0085C2 13.2727 2.57687 12.711 3.2654 12.3201C3.98136 11.9136 4.96544 11.6019 6.09186 11.4091L6.24576 12.3086C5.1805 12.4909 4.3083 12.7774 3.71592 13.1137C3.09609 13.4656 2.91254 13.7912 2.91254 14.0085C2.91254 14.1557 2.9915 14.3522 3.25888 14.5864C3.52538 14.8198 3.93731 15.0508 4.48571 15.254C5.57899 15.659 7.1198 15.9187 8.84404 15.9187C10.5683 15.9187 12.1091 15.659 13.2024 15.254C13.7508 15.0508 14.1627 14.8198 14.4292 14.5864C14.6966 14.3522 14.7755 14.1557 14.7755 14.0085C14.7755 13.7805 14.5722 13.4356 13.8938 13.0704Z" fill="#C4C4C4"/>
</svg>
