<svg width="18" height="18" viewBox="0 0 18 18" fill="none" xmlns="http://www.w3.org/2000/svg">
<path d="M11.0359 11.7279L11.0357 11.7281C11.0456 11.7382 11.0588 11.7443 11.0728 11.7454C11.0863 11.7464 11.0996 11.7427 11.1106 11.735C11.5056 11.3971 11.703 11.2269 12.0965 10.8859L12.1457 10.9426M11.0359 11.7279L15.3616 12.2098C14.9503 11.783 14.5168 11.3781 14.0631 10.9968L14.1118 10.9398C14.1117 10.9397 14.1116 10.9396 14.1115 10.9396C13.7839 10.6598 13.4345 10.5104 13.0866 10.5006C12.738 10.4908 12.3998 10.6215 12.0964 10.886L12.1457 10.9426M11.0359 11.7279L11.0312 11.7239C10.4113 11.1889 7.81141 8.58906 7.27593 7.96865L7.27611 7.96849L7.27177 7.96421C7.26171 7.9543 7.25559 7.94108 7.25453 7.927C7.25352 7.91357 7.2572 7.90021 7.26491 7.8892C7.60284 7.49445 7.77297 7.29679 8.1132 6.90415C8.37802 6.60039 8.50889 6.26194 8.49918 5.91328C8.48949 5.56535 8.34008 5.21591 8.06035 4.88836C7.67748 4.43277 7.27095 3.9976 6.84244 3.58465C6.41671 3.16693 5.97055 2.94216 5.52479 2.92594C5.07776 2.90968 4.6454 3.10367 4.24972 3.49445L4.2497 3.49443L4.24826 3.49594C3.82286 3.94015 3.47424 4.45197 3.21663 5.01046C2.55296 6.42401 3.11529 8.00955 3.96548 9.36722C4.81765 10.7281 5.97428 11.8847 6.54396 12.4543L6.54475 12.4551L6.54525 12.4556C7.02768 12.9381 7.93076 13.8411 9.02183 14.6237C10.111 15.4049 11.3994 16.0748 12.6516 16.0749M11.0359 11.7279L15.4154 12.1576C15.8331 12.5832 16.0578 13.0293 16.0741 13.4751C16.0903 13.9221 15.8964 14.3545 15.5055 14.7502L15.5041 14.7517L15.504 14.7517C15.0597 15.177 14.5479 15.5257 13.9894 15.7834C13.5707 15.9787 13.1137 16.0782 12.6516 16.0749M12.1457 10.9426C11.7513 11.2843 11.5538 11.4546 11.1572 11.7938L12.1457 10.9426ZM12.6516 16.0749C12.6516 16.0749 12.6515 16.0749 12.6514 16.0749L12.6519 15.9999V16.0749C12.6518 16.0749 12.6517 16.0749 12.6516 16.0749ZM13.594 11.5457C13.1275 11.1473 12.8282 11.3056 12.6194 11.4875L13.594 11.5457ZM13.594 11.5457C14.0318 11.9132 14.4498 12.3037 14.8462 12.7155L13.594 11.5457ZM13.6192 14.9938L13.6197 14.9936C14.0856 14.7786 14.5133 14.4891 14.8861 14.1365C15.0509 13.9695 15.1811 13.7905 15.1988 13.5789C15.216 13.3717 15.1266 13.1112 14.8016 12.777L14.8012 12.7769L14.7921 12.7675C14.3976 12.3576 13.9815 11.969 13.5458 11.6032L13.5453 11.6028C13.3216 11.4117 13.1491 11.3633 13.0159 11.3738C12.8808 11.3844 12.7689 11.4567 12.6686 11.5441L12.6685 11.5442C12.2719 11.888 12.0734 12.0589 11.6754 12.3994L11.6751 12.3997C11.5046 12.5437 11.2879 12.6213 11.0647 12.6183C10.8418 12.6153 10.6274 12.532 10.461 12.3837C10.4608 12.3835 10.4607 12.3834 10.4605 12.3833L10.5104 12.3273C9.85621 11.7626 7.23776 9.14423 6.67253 8.48939L13.6192 14.9938ZM13.6192 14.9938C12.8862 15.3381 11.9805 15.2586 10.8984 14.7343C9.81615 14.2099 8.56803 13.2451 7.16133 11.8386C5.75478 10.4318 4.7901 9.18368 4.26573 8.1015C3.74141 7.01939 3.66195 6.11371 4.00604 5.38085L4.00625 5.3804C4.22142 4.91408 4.51124 4.48601 4.86431 4.11305L4.86439 4.11313L4.86707 4.10996C4.94292 4.0204 5.03581 3.94679 5.14033 3.89341C5.244 3.84047 5.35708 3.80847 5.4731 3.79924C5.67274 3.80019 5.92058 3.90178 6.23203 4.2074L6.23203 4.2074L6.23255 4.2079C6.64238 4.60239 7.03096 5.01837 7.39665 5.4541L7.39707 5.4546C7.58801 5.67808 7.63648 5.85056 7.62597 5.98386C7.6153 6.11914 7.54279 6.23134 7.45497 6.33206L7.45481 6.33224C7.11187 6.72806 6.94099 6.92653 6.60032 7.32455L6.59997 7.32496C6.45613 7.49548 6.37862 7.71215 6.38166 7.93522C6.3847 8.15807 6.46795 8.37236 6.61613 8.53883L13.6192 14.9938ZM7.5115 6.38135C7.16866 6.77705 6.99787 6.97541 6.6573 7.37332L7.4541 5.40588C7.85236 5.87204 7.69441 6.17157 7.5115 6.38135Z" fill="#C4C4C4" stroke="#C4C4C4" stroke-width="0.15"/>
</svg>
